<?xml version="1.0" encoding="UTF-8"?>
<svg width="200" height="200" viewBox="0 0 200 200" xmlns="http://www.w3.org/2000/svg">
  <!-- Hearts -->
  <path d="M50 50 Q60 30 70 50 Q80 30 90 50 Q90 70 70 80 Q50 70 50 50" fill="rgba(220, 0, 78, 0.1)"/>
  <path d="M150 50 Q160 30 170 50 Q180 30 190 50 Q190 70 170 80 Q150 70 150 50" fill="rgba(220, 0, 78, 0.1)"/>
  
  <!-- Spades -->
  <path d="M50 150 Q60 130 70 150 Q80 130 90 150 Q90 170 70 180 Q50 170 50 150" fill="rgba(33, 150, 243, 0.1)"/>
  <path d="M150 150 Q160 130 170 150 Q180 130 190 150 Q190 170 170 180 Q150 170 150 150" fill="rgba(33, 150, 243, 0.1)"/>
  
  <!-- Diamonds -->
  <path d="M100 30 L120 50 L100 70 L80 50 Z" fill="rgba(255, 64, 129, 0.1)"/>
  <path d="M100 130 L120 150 L100 170 L80 150 Z" fill="rgba(255, 64, 129, 0.1)"/>
  
  <!-- Clubs -->
  <path d="M30 100 Q50 80 70 100 Q50 120 30 100" fill="rgba(21, 203, 243, 0.1)"/>
  <path d="M130 100 Q150 80 170 100 Q150 120 130 100" fill="rgba(21, 203, 243, 0.1)"/>
</svg> 